<?xml version="1.0" encoding="utf-8"?>
<!-- Generator: Adobe Illustrator 24.2.3, SVG Export Plug-In . SVG Version: 6.00 Build 0)  -->
<svg version="1.1" id="图层_1" xmlns="http://www.w3.org/2000/svg" xmlns:xlink="http://www.w3.org/1999/xlink" x="0px" y="0px"
	 viewBox="0 0 1024 1024" style="enable-background:new 0 0 1024 1024;" xml:space="preserve">
<style type="text/css">
	.st0{fill:#0062E5;}
</style>
<g>
	<path class="st0" d="M589.8,959.3c-48.5,0-89.5-7.5-119.3-11.2c-111.8-22.4-186.4-115.5-216.2-156.5l-7.4-11.2
		c-41-55.9-85.7-123-85.7-123c-18.6-22.4-26.1-55.9-18.6-85.7c3.7-29.8,22.4-55.9,44.7-74.5c26.1-18.6,55.9-26.1,85.7-18.6
		c29.8,3.7,55.9,22.4,74.5,44.7l29.8,41c11.2,14.9,7.5,41-7.5,52.2c-14.9,11.2-41,7.5-52.2-7.5l-29.8-41
		c-7.5-7.5-14.9-14.9-26.1-14.9s-22.4,0-29.8,7.5c-11.2,7.5-14.9,14.9-18.6,26.1s0,18.6,7.4,29.8c0,0,44.7,67.1,85.7,119.3l7.5,11.2
		c29.8,37.3,89.4,115.5,171.4,130.5c44.7,7.5,134.2,18.6,212.5-3.7c67.1-18.6,111.8-85.7,111.8-164V314.5
		c0-14.9-11.2-26.1-26.1-26.1s-26.1,11.2-26.1,26.1v208.7c0,22.4-14.9,37.3-37.3,37.3c-22.4,0-37.3-14.9-37.3-37.3V314.5
		c0-55.9,44.7-100.6,100.6-100.6s100.6,44.7,100.6,100.6v391.4c0,111.8-67.1,208.7-167.7,238.5C675.6,955.5,630.8,959.3,589.8,959.3
		z"/>
	<path class="st0" d="M720.3,560.5c-22.4,0-37.3-14.9-37.3-37.3V239.9c0-14.9-11.2-26.1-26.1-26.1c-14.9,0-26.1,11.2-26.1,26.1v287
		c0,22.4-14.9,37.3-37.3,37.3c-22.4,0-37.3-14.9-37.3-37.3v-287c0-55.9,44.7-100.6,100.6-100.6S757.6,184,757.6,239.9v287
		C757.6,545.5,738.9,560.5,720.3,560.5z"/>
	<path class="st0" d="M593.6,560.5c-22.4,0-37.3-14.9-37.3-37.3V165.4c0-14.9-11.2-26.1-26.1-26.1c-14.9,0-26.1,11.2-26.1,26.1
		v361.5c0,22.4-14.9,37.3-37.3,37.3s-37.3-14.9-37.3-37.3V165.4c0-55.9,44.7-100.6,100.6-100.6c55.9,0,100.6,44.7,100.6,100.6v361.5
		C630.8,545.5,615.9,560.5,593.6,560.5z"/>
	<path class="st0" d="M343.8,627.5c-22.4,0-37.3-14.9-37.3-37.3V239.9c0-55.9,44.7-100.6,100.6-100.6S507.8,184,507.8,239.9v287
		c0,22.4-14.9,37.3-37.3,37.3s-37.3-14.9-37.3-37.3v-287c0-14.9-11.2-26.1-26.1-26.1s-26.1,11.2-26.1,26.1v350.4
		C381.1,612.6,366.2,627.5,343.8,627.5z"/>
</g>
</svg>
